# xmcd
#
# Track frame offsets: 
#        150
#        4796
#        20913
#        40136
#        60582
#        76144
#        92731
#        112437
#        131325
#        147803
#        166409
#        183087
#        205458
#
# Disc length: 2984 seconds
#
# Revision: 4
# Processed by: cddbd v1.5.2PL0 Copyright (c) Steve Scherf et al.
# Submitted via: ExactAudioCopy v1.0b3
#
DISCID=ae0ba60d
DTITLE=Sara Bareilles - Kaleidoscope Heart
DYEAR=2010
DGENRE=Pop
TTITLE0=Kaleidoscope Heart
TTITLE1=Uncharted
TTITLE2=Gonna Get Over You
TTITLE3=Hold My Heart
TTITLE4=King of Anything
TTITLE5=Say You're Sorry
TTITLE6=The Light
TTITLE7=Basket Case
TTITLE8=Let the Rain
TTITLE9=Machine Gun
TTITLE10=Not Alone
TTITLE11=Breathe Again
TTITLE12=Bluebird
EXTD=MediaType: Audio CD Producer: Unknown
EXTT0=
EXTT1=
EXTT2=
EXTT3=
EXTT4=
EXTT5=
EXTT6=
EXTT7=
EXTT8=
EXTT9=
EXTT10=
EXTT11=
EXTT12=
PLAYORDER=
